<svg width="37" height="29" viewBox="0 0 37 29" fill="none" xmlns="http://www.w3.org/2000/svg">
<path d="M37 3.6407L29.875 13.8095C31.5417 14.1443 32.9375 14.9812 34.0625 16.3203C35.1875 17.6595 35.75 19.2496 35.75 21.0909C35.75 23.267 34.9792 25.1292 33.4375 26.6775C31.8958 28.2258 30 29 27.75 29C25.5 29 23.6042 28.2258 22.0625 26.6775C20.5208 25.1292 19.75 23.267 19.75 21.0909C19.75 19.9192 20 18.7056 20.5 17.4502C21 16.1948 21.9167 14.5628 23.25 12.5541L31.5625 0C31.5625 0 33.375 1.21357 37 3.6407ZM17.25 3.6407L10.125 13.8095C11.7917 14.1443 13.1875 14.9812 14.3125 16.3203C15.4375 17.6595 16 19.2496 16 21.0909C16 23.267 15.2292 25.1292 13.6875 26.6775C12.1458 28.2258 10.25 29 8 29C5.75 29 3.85417 28.2258 2.3125 26.6775C0.770833 25.1292 0 23.267 0 21.0909C0 19.9192 0.25 18.7056 0.75 17.4502C1.25 16.1948 2.16667 14.5628 3.5 12.5541L11.8125 0C11.8125 0 13.625 1.21357 17.25 3.6407Z" fill="#EFEFEF"/>
</svg>
