<svg width="92" height="92" viewBox="0 0 92 92" fill="none" xmlns="http://www.w3.org/2000/svg">
<path d="M28.165 47.5258C31.2337 50.1315 32.404 47.3238 32.9847 52.4784C37.6802 51.804 37.5495 59.0783 45.2953 60.6239M26.3271 55.5609L33.0015 61.2281M37.9326 43.0638L35.75 39.3507C35.1354 38.0033 35.6995 36.1356 37.1575 35.8758C46.9605 34.1292 51.9006 25.3082 51.9006 25.3082C51.9006 25.3082 53.3313 14.3611 36.9131 14.02M38.403 24.7851L46.9605 29.7412M71.9042 49.1901C64.3091 45.4926 56.4669 37.9566 56.4669 37.9566M70.5346 48.9868C70.5346 48.9868 69.3127 51.1537 69.7231 53.9088" stroke="black" stroke-width="2" stroke-miterlimit="10" stroke-linecap="round" stroke-linejoin="round"/>
<path d="M34.8993 26.418C34.8993 26.418 37.1874 26.855 39.8806 26.1436M66.052 45.8869C66.052 45.8869 64.9065 48.0692 64.7367 49.2144M34.143 18.7714C29.7259 23.6691 25.528 29.3808 23.6133 34.9621C11.9357 68.9998 14.9854 71.4604 39.8403 79.8206M49.822 3.729C49.822 3.729 46.3824 7.07227 43.7192 9.4021C42.1464 10.7781 41.0539 11.7269 39.1286 13.6231" stroke="black" stroke-width="2" stroke-miterlimit="10" stroke-linecap="round" stroke-linejoin="round"/>
<path d="M29.6645 76.1516C33.3342 85.9577 33.0016 88.0983 33.0016 88.0983M61.7225 28.9567C61.7225 28.9567 65.7125 26.875 70.0929 28.487C76.3369 30.7846 79.3235 43.9385 79.3235 43.9385M81.3902 65.4243V66.0122M81.3902 72.7839V73.3718M77.4164 69.3981H78.0044M84.7761 69.3981H85.364M11.0674 14.7979V15.3856M11.0674 22.1573V22.7453M7.09375 18.7715H7.68151M14.4534 18.7715H15.0411M62.6138 75.8469V76.4348M62.6138 83.2065V83.7944M58.64 79.8206H59.2279M65.9996 79.8206H66.5876" stroke="black" stroke-width="2" stroke-miterlimit="10" stroke-linecap="round" stroke-linejoin="round"/>
</svg>
