<svg width="32" height="32" viewBox="0 0 32 32" fill="none" xmlns="http://www.w3.org/2000/svg">
<g clip-path="url(#clip0_36351_274)">
<path fill-rule="evenodd" clip-rule="evenodd" d="M16 0.744141C24.8618 0.744141 32 7.28107 32 15.2558C32 23.2305 24.8618 29.7674 16 29.7674C13.9193 29.7674 11.9308 29.4057 10.109 28.7508L5.33584 31.1382C5.15386 31.229 4.95051 31.2684 4.74776 31.2522C4.545 31.2359 4.35054 31.1646 4.18536 31.0459C3.84899 30.8048 3.67482 30.3955 3.73138 29.9846L4.39519 25.2442C1.66546 22.6366 0 19.1181 0 15.2558C0 7.28107 7.13823 0.744141 16 0.744141ZM9.13265 19.9769L12.9801 16.9838C13.4564 16.6132 14.1098 16.5671 14.6322 16.8662L17.7712 18.6597C18.4499 19.0481 19.3131 18.8443 19.7477 18.1924L23.9092 11.9516C23.9642 11.8681 23.9898 11.7686 23.982 11.6689C23.9742 11.5692 23.9334 11.4749 23.8661 11.4009C23.798 11.3273 23.7071 11.2786 23.6081 11.2627C23.5091 11.2468 23.4076 11.2645 23.3198 11.3131L19.0258 13.6989C18.5391 13.9698 17.9408 13.9445 17.4779 13.6364L15.0265 12.0022C14.8623 11.8924 14.6777 11.8165 14.4838 11.7789C14.2898 11.7413 14.0902 11.7428 13.8968 11.7834C13.7036 11.824 13.5203 11.9025 13.3576 12.0144C13.1948 12.1263 13.0559 12.2694 12.9488 12.4353L8.48366 19.383C8.4267 19.4717 8.40292 19.5778 8.41654 19.6823C8.43016 19.7869 8.48029 19.8833 8.55808 19.9545C8.71742 20.1004 8.96152 20.1108 9.13265 19.9769Z" fill="white"/>
</g>
<defs>
<clipPath id="clip0_36351_274">
<rect width="32" height="32" fill="white"/>
</clipPath>
</defs>
</svg>
